<svg width="19" height="19" viewBox="0 0 19 19" fill="none" xmlns="http://www.w3.org/2000/svg">
<path d="M9.9502 18.3672C14.9208 18.3672 18.9502 14.3378 18.9502 9.36719C18.9502 4.39662 14.9208 0.367188 9.9502 0.367188C4.97963 0.367188 0.950195 4.39662 0.950195 9.36719C0.950195 14.3378 4.97963 18.3672 9.9502 18.3672Z" fill="#FFCC4D"/>
<path d="M9.9502 10.8679C8.1387 10.8679 6.9367 10.6569 5.4502 10.3679C5.1107 10.3024 4.4502 10.3679 4.4502 11.3679C4.4502 13.3679 6.7477 15.8679 9.9502 15.8679C13.1522 15.8679 15.4502 13.3679 15.4502 11.3679C15.4502 10.3679 14.7897 10.3019 14.4502 10.3679C12.9637 10.6569 11.7617 10.8679 9.9502 10.8679Z" fill="#664500"/>
<path d="M5.4502 11.3672C5.4502 11.3672 6.9502 11.8672 9.9502 11.8672C12.9502 11.8672 14.4502 11.3672 14.4502 11.3672C14.4502 11.3672 13.4502 13.3672 9.9502 13.3672C6.4502 13.3672 5.4502 11.3672 5.4502 11.3672Z" fill="white"/>
<path d="M6.9502 8.86719C7.64055 8.86719 8.2002 8.08369 8.2002 7.11719C8.2002 6.15069 7.64055 5.36719 6.9502 5.36719C6.25984 5.36719 5.7002 6.15069 5.7002 7.11719C5.7002 8.08369 6.25984 8.86719 6.9502 8.86719Z" fill="#664500"/>
<path d="M12.9502 8.86719C13.6406 8.86719 14.2002 8.08369 14.2002 7.11719C14.2002 6.15069 13.6406 5.36719 12.9502 5.36719C12.2598 5.36719 11.7002 6.15069 11.7002 7.11719C11.7002 8.08369 12.2598 8.86719 12.9502 8.86719Z" fill="#664500"/>
</svg>
