<svg width="21" height="20" viewBox="0 0 21 20" fill="none" xmlns="http://www.w3.org/2000/svg">
<path d="M12.5252 14H16.9102L14.9172 9.046L12.5252 14ZM17.7152 16H11.5592L9.90118 19.435C9.78581 19.674 9.58024 19.8573 9.32969 19.9447C9.07914 20.0321 8.80414 20.0164 8.56518 19.901C8.32622 19.7856 8.14288 19.5801 8.05549 19.3295C7.96809 19.079 7.98381 18.804 8.09918 18.565L13.1162 8.177C13.2848 7.82813 13.551 7.53574 13.8827 7.33536C14.2143 7.13498 14.597 7.03524 14.9842 7.04827C15.3715 7.0613 15.7466 7.18653 16.064 7.40874C16.3814 7.63096 16.6274 7.94059 16.7722 8.3L20.9282 18.627C21.0271 18.8731 21.0242 19.1485 20.9201 19.3924C20.816 19.6364 20.6193 19.8291 20.3732 19.928C20.1271 20.0269 19.8517 20.024 19.6077 19.9199C19.3638 19.8159 19.1711 19.6191 19.0722 19.373L17.7152 16ZM2.00018 0H10.0002C10.2654 0 10.5198 0.105357 10.7073 0.292893C10.8948 0.48043 11.0002 0.734784 11.0002 1C11.0002 1.26522 10.8948 1.51957 10.7073 1.70711C10.5198 1.89464 10.2654 2 10.0002 2H2.00018C1.73496 2 1.48061 1.89464 1.29307 1.70711C1.10554 1.51957 1.00018 1.26522 1.00018 1C1.00018 0.734784 1.10554 0.48043 1.29307 0.292893C1.48061 0.105357 1.73496 0 2.00018 0ZM2.00018 5C1.73496 5 1.48061 4.89464 1.29307 4.70711C1.10554 4.51957 1.00018 4.26522 1.00018 4C1.00018 3.73478 1.10554 3.48043 1.29307 3.29289C1.48061 3.10536 1.73496 3 2.00018 3H9.00318C9.35342 3.00011 9.69748 3.0922 10.001 3.26704C10.3044 3.44188 10.5567 3.69335 10.7324 3.99629C10.9082 4.29922 11.0013 4.64301 11.0025 4.99324C11.0037 5.34348 10.9129 5.68788 10.7392 5.992C9.79418 7.646 8.74618 8.836 7.57418 9.546C6.10218 10.439 4.25418 10.918 2.03718 10.999C1.904 11.0073 1.77052 10.9888 1.64458 10.9447C1.51864 10.9006 1.40281 10.8318 1.3039 10.7422C1.20499 10.6526 1.125 10.5442 1.06865 10.4232C1.0123 10.3023 0.980721 10.1713 0.975783 10.0379C0.970844 9.9046 0.992642 9.77161 1.03989 9.64683C1.08714 9.52204 1.15889 9.40797 1.2509 9.31133C1.34292 9.2147 1.45334 9.13746 1.57567 9.08416C1.698 9.03087 1.82976 9.00259 1.96318 9.001C3.86118 8.931 5.38218 8.537 6.53718 7.836C7.38418 7.323 8.21318 6.382 9.00318 5H2.00018Z" fill="#D7FC70"/>
</svg>
