<svg width="20" height="24" viewBox="0 0 20 24" fill="none" xmlns="http://www.w3.org/2000/svg">
<path d="M16.8941 17.3939L11.5916 22.6979C11.3827 22.907 11.1346 23.0728 10.8615 23.186C10.5884 23.2992 10.2957 23.3574 10.0001 23.3574C9.70452 23.3574 9.41182 23.2992 9.13875 23.186C8.86567 23.0728 8.61757 22.907 8.40862 22.6979L3.10612 17.3939C2.20069 16.4886 1.48244 15.4138 0.992387 14.2308C0.502333 13.0479 0.25007 11.7801 0.25 10.4997C0.24993 9.21927 0.502056 7.95139 0.991981 6.76842C1.48191 5.58546 2.20004 4.51057 3.10537 3.60514C4.0107 2.69971 5.08551 1.98146 6.26842 1.49141C7.45133 1.00136 8.71918 0.749093 9.99959 0.749023C11.28 0.748954 12.5479 1.00108 13.7308 1.491C14.9138 1.98093 15.9887 2.69906 16.8941 3.60439C17.7996 4.50978 18.5179 5.58467 19.008 6.76768C19.4981 7.95069 19.7503 9.21865 19.7503 10.4991C19.7503 11.7796 19.4981 13.0476 19.008 14.2306C18.5179 15.4136 17.7996 16.4885 16.8941 17.3939ZM15.3041 5.19589C13.8974 3.78918 11.9895 2.9974 10.0001 2.9974C8.01073 2.9974 6.10283 3.78768 4.69612 5.19439C3.28941 6.6011 2.49913 8.50901 2.49913 10.4984C2.49913 12.4878 3.28941 14.3957 4.69612 15.8024L10.0001 21.1049L15.3041 15.8039C16.0008 15.1074 16.5534 14.2805 16.9304 13.3705C17.3075 12.4604 17.5015 11.485 17.5015 10.4999C17.5015 9.51481 17.3075 8.53938 16.9304 7.62931C16.5534 6.71924 16.0008 5.89236 15.3041 5.19589ZM10.0001 13.4999C9.60061 13.5089 9.20332 13.4381 8.83158 13.2914C8.45984 13.1448 8.12114 12.9254 7.83536 12.6461C7.54958 12.3668 7.32249 12.0332 7.16741 11.6649C7.01233 11.2966 6.9324 10.901 6.9323 10.5014C6.9322 10.1018 7.01193 9.70619 7.16683 9.33782C7.32172 8.96945 7.54865 8.63574 7.83429 8.35628C8.11993 8.07682 8.45852 7.85724 8.83019 7.71043C9.20185 7.56363 9.59911 7.49256 9.99862 7.50139C10.7825 7.51873 11.5284 7.84223 12.0767 8.40265C12.625 8.96307 12.9321 9.71588 12.9323 10.4999C12.9325 11.2839 12.6257 12.0369 12.0777 12.5976C11.5297 13.1583 10.784 13.4822 10.0001 13.4999Z" fill="#D7FC70"/>
</svg>
