<svg width="22" height="22" viewBox="0 0 22 22" fill="none" xmlns="http://www.w3.org/2000/svg">
<path d="M18.4245 3.5815C17.4512 2.59861 16.2933 1.8177 15.0173 1.28365C13.7414 0.749595 12.3724 0.472919 10.9892 0.469514C9.606 0.46611 8.23573 0.736044 6.95714 1.26381C5.67856 1.79158 4.51685 2.56677 3.53876 3.54486C2.56067 4.52295 1.78547 5.68466 1.25771 6.96325C0.729941 8.24183 0.460006 9.6121 0.463411 10.9953C0.466815 12.3785 0.743492 13.7475 1.27754 15.0234C1.8116 16.2994 2.5925 17.4573 3.5754 18.4306C4.54866 19.4135 5.70654 20.1944 6.98251 20.7284C8.25849 21.2625 9.62741 21.5391 11.0106 21.5425C12.3939 21.5459 13.7641 21.276 15.0427 20.7482C16.3213 20.2205 17.483 19.4453 18.4611 18.4672C19.4392 17.4891 20.2144 16.3274 20.7421 15.0488C21.2699 13.7702 21.5398 12.4 21.5364 11.0167C21.533 9.63351 21.2564 8.26459 20.7223 6.98862C20.1883 5.71264 19.4074 4.55476 18.4245 3.5815ZM1.99993 11.006C1.99959 10.2095 2.1052 9.41644 2.31399 8.64775C2.65805 9.38837 3.15774 10.0282 3.49758 10.7881C3.9368 11.7649 5.11618 11.494 5.63696 12.3499C6.09914 13.1098 5.60555 14.0707 5.95149 14.8657C6.20274 15.4427 6.79524 15.5688 7.20399 15.9907C7.62165 16.4163 7.61274 16.9995 7.67649 17.5545C7.74843 18.2066 7.86511 18.8529 8.02571 19.489C8.02571 19.4937 8.02571 19.4988 8.02946 19.5035C4.5218 18.2717 1.99993 14.9281 1.99993 11.006ZM10.9999 20.006C10.4973 20.0059 9.99557 19.9639 9.49993 19.8804C9.50508 19.7534 9.50743 19.6348 9.52008 19.5523C9.63399 18.807 10.0071 18.0781 10.5106 17.5202C11.0079 16.9699 11.6895 16.5977 12.1095 15.9734C12.521 15.364 12.6443 14.5437 12.4746 13.8317C12.2248 12.7798 10.7956 12.4287 10.0249 11.8582C9.58196 11.5301 9.18774 11.0229 8.60602 10.9817C8.33789 10.9629 8.11336 11.0206 7.84758 10.9521C7.60383 10.8888 7.41258 10.7576 7.15289 10.7918C6.66774 10.8556 6.36164 11.374 5.84039 11.3037C5.34586 11.2376 4.83633 10.6587 4.72383 10.1876C4.57946 9.58197 5.05852 9.38556 5.5718 9.33165C5.78602 9.30915 6.02649 9.28478 6.23227 9.36353C6.50321 9.46384 6.63118 9.72915 6.87446 9.86322C7.33055 10.1135 7.42289 9.71369 7.35305 9.30869C7.24852 8.70212 7.12665 8.45509 7.66758 8.03744C8.04258 7.74962 8.36321 7.5415 8.30321 7.02447C8.26758 6.72072 8.10118 6.58337 8.25633 6.28103C8.37399 6.05087 8.69696 5.84322 8.90743 5.70587C9.45071 5.3515 11.2348 5.37775 10.5059 4.38587C10.2916 4.09478 9.89649 3.57447 9.52149 3.50322C9.05274 3.41462 8.84461 3.93775 8.51789 4.16837C8.1804 4.40697 7.52321 4.67791 7.18524 4.309C6.73055 3.81259 7.48664 3.64994 7.65399 3.30306C7.73133 3.14134 7.65399 2.91681 7.52368 2.7054C7.69274 2.63416 7.86461 2.56806 8.0393 2.50712C8.14878 2.58798 8.27865 2.63668 8.4143 2.64775C8.72789 2.66837 9.02368 2.49869 9.29743 2.71244C9.60118 2.94681 9.82008 3.24306 10.2232 3.31619C10.6132 3.38697 11.0262 3.15962 11.1227 2.76025C11.1813 2.51744 11.1227 2.26103 11.0665 2.01025C12.8196 2.02034 14.5311 2.54537 15.9884 3.52009C15.8946 3.48447 15.7826 3.48869 15.6443 3.5529C15.3598 3.68509 14.9566 4.02166 14.9234 4.3554C14.8854 4.73416 15.4441 4.78759 15.7095 4.78759C16.1079 4.78759 16.5115 4.60947 16.3831 4.14915C16.3273 3.94947 16.2513 3.74181 16.129 3.61619C16.4231 3.82026 16.7048 4.04159 16.9727 4.279C16.9685 4.28322 16.9643 4.28697 16.9601 4.29166C16.6901 4.57291 16.3765 4.79556 16.1918 5.13775C16.0615 5.37869 15.9148 5.49306 15.6509 5.55541C15.5056 5.58962 15.3396 5.60228 15.2177 5.69978C14.8784 5.96697 15.0715 6.60915 15.3931 6.80181C15.7995 7.04509 16.4023 6.93072 16.7088 6.58337C16.9484 6.3115 17.0895 5.83947 17.5202 5.83994C17.7099 5.83954 17.8921 5.9138 18.0274 6.04666C18.2056 6.23134 18.1704 6.40384 18.2084 6.63447C18.2754 7.04415 18.6368 6.82197 18.8566 6.61525C19.0169 6.90045 19.1615 7.19416 19.2898 7.49509C19.0479 7.84337 18.8557 8.22306 18.274 7.81712C17.9257 7.57384 17.7115 7.22087 17.2741 7.11119C16.8921 7.01744 16.5007 7.11494 16.1234 7.18009C15.6945 7.25462 15.1859 7.28744 14.8606 7.61228C14.546 7.9254 14.3796 8.34447 14.0449 8.659C13.3976 9.26837 13.1243 9.93353 13.5434 10.7951C13.9465 11.6234 14.7898 12.0729 15.6996 12.0138C16.5935 11.9543 17.5221 11.4359 17.4963 12.7348C17.487 13.1946 17.5831 13.5129 17.7241 13.9399C17.8549 14.3337 17.846 14.7152 17.876 15.1217C17.9045 15.5976 17.979 16.0696 18.0982 16.5312C17.258 17.613 16.1817 18.4884 14.9515 19.0906C13.7212 19.6929 12.3697 20.006 10.9999 20.006Z" fill="#D7FC70"/>
</svg>
